<svg viewBox="0 0 48 41" fill="none" xmlns="http://www.w3.org/2000/svg">
<path fill-rule="evenodd" clip-rule="evenodd" d="M9.5703 0C4.59996 0 0.571289 4.03215 0.571289 9.00679C0.571289 13.9797 4.59996 18.0136 9.5703 18.0136C14.5406 18.0136 18.5693 13.9797 18.5693 9.00679C18.5693 4.03215 14.5406 0 9.5703 0ZM7.35059 38.5697C7.35059 39.9125 8.34713 41.0003 9.5791 41.0003C21.0884 41.0003 26.5174 35.1325 31.3928 29.8631C35.3658 25.569 38.9712 21.6722 45.1999 21.6722C46.4319 21.6722 47.4284 20.5827 47.4284 19.2416V4.63299C47.4284 3.29012 46.4319 2.20236 45.1999 2.20236C34.1103 2.20236 28.7334 7.90208 23.8422 13.0869C19.7615 17.4126 16.0189 21.3799 9.5791 21.3799C8.31173 21.3799 7.35059 22.4694 7.35059 23.8105V38.5697Z" fill="#FF601F"/>
</svg>
